<svg width="10" height="8" viewBox="0 0 10 8" fill="none" xmlns="http://www.w3.org/2000/svg">
<path d="M5.9425 0.758451C5.99083 0.798003 6.1975 0.947345 6.3675 1.08646C7.43667 1.90205 9.18667 4.02966 9.72083 5.14325C9.80667 5.31237 9.98833 5.73994 10 5.96839C10 6.18729 9.94 6.39596 9.81833 6.59508C9.64833 6.8433 9.38083 7.04243 9.065 7.15153C8.84583 7.22177 8.19 7.33088 8.17833 7.33088C7.46083 7.43999 6.295 7.5 5.00667 7.5C3.77917 7.5 2.66083 7.43999 1.9325 7.35066C1.92083 7.34043 1.10583 7.23132 0.826667 7.11198C0.316667 6.89308 0 6.46551 0 6.00794V5.96839C0.0124998 5.67038 0.329167 5.04369 0.340834 5.04369C0.875834 3.99011 2.54 1.91159 3.64583 1.07623C3.64583 1.07623 3.93 0.840964 4.1075 0.738675C4.3625 0.579104 4.67833 0.5 4.99417 0.5C5.34667 0.5 5.675 0.589333 5.9425 0.758451Z" fill="#FEF6E9"/>
</svg>
