<svg width="24" height="20" viewBox="0 0 24 20" fill="none" xmlns="http://www.w3.org/2000/svg">
<path d="M22.1013 0.254336C22.4208 0.562622 22.4498 1.04504 22.1884 1.38499L22.1013 1.48238L3.17248 19.7457C2.821 20.0848 2.25116 20.0848 1.89968 19.7457C1.58016 19.4374 1.55112 18.955 1.81254 18.615L1.89968 18.5176L4.26614 16.2359C2.56363 14.7366 1.13588 12.7324 0.072977 10.3433C-0.0245863 10.1241 -0.0243143 9.87569 0.0737289 9.6566C1.30436 6.9066 3.01265 4.66355 5.06227 3.10825C7.13695 1.52402 9.53178 0.676971 12 0.676971C14.2263 0.676971 16.3872 1.36795 18.3224 2.67113L20.8285 0.254336C21.18 -0.0847786 21.7498 -0.0847786 22.1013 0.254336ZM21.6567 5.83554C22.5276 6.95194 23.2887 8.23355 23.9261 9.65556C24.0246 9.87531 24.0247 10.1245 23.9263 10.3444C21.4335 15.9164 16.9614 19.3229 12 19.3229C10.8705 19.3229 9.75301 19.1467 8.67668 18.8001C8.20519 18.6483 7.95053 18.1564 8.10789 17.7015C8.26525 17.2466 8.77503 17.0009 9.24652 17.1527C10.1397 17.4403 11.0648 17.5862 12 17.5862C15.9655 17.5862 19.6572 14.9252 21.9272 10.388L22.1141 10.0016L22.0506 9.86419C21.5938 8.91576 21.0774 8.04583 20.5078 7.2637L20.2185 6.87999C19.9196 6.49683 19.9992 5.95241 20.3963 5.66399C20.7935 5.37557 21.3577 5.45237 21.6567 5.83554ZM12 2.41369C9.9483 2.41369 7.9439 3.12264 6.17717 4.47172C4.48538 5.75549 3.03534 7.60084 1.94047 9.88284L1.88448 10.0016L1.9389 10.118C2.8905 12.1117 4.1167 13.7694 5.53982 15.0058L8.10496 12.5303C7.58707 11.7947 7.3032 10.9235 7.3032 10.0014C7.3032 7.49225 9.40046 5.46741 12 5.46741C12.9505 5.46741 13.8631 5.74322 14.6238 6.24053L17.0268 3.92203C15.4577 2.93003 13.7477 2.41369 12 2.41369ZM15.7639 9.78334L15.8855 9.79639C16.3748 9.88128 16.7 10.3327 16.612 10.8047C16.2672 12.6549 14.759 14.1129 12.8426 14.4486C12.3535 14.5342 11.8851 14.2212 11.7963 13.7493C11.7075 13.2774 12.032 12.8255 12.5211 12.7398C13.6983 12.5336 14.6285 11.6343 14.8405 10.4973C14.9211 10.0647 15.321 9.7649 15.7639 9.78334ZM12 7.20412C10.3948 7.20412 9.1032 8.45116 9.1032 10.0014C9.1032 10.453 9.21205 10.8818 9.41617 11.2654L13.3124 7.50645C12.9143 7.31076 12.4652 7.20412 12 7.20412Z" fill="#FEF6E9"/>
</svg>
