<svg width="28" height="30" viewBox="0 0 28 30" fill="none" xmlns="http://www.w3.org/2000/svg">
<path fill-rule="evenodd" clip-rule="evenodd" d="M11.8555 0.03195C10.8756 0.194522 10.0961 0.576393 9.39541 1.23707C8.81608 1.78335 8.33206 2.63499 8.10963 3.49938C8.01081 3.88336 7.9952 4.07684 7.99716 4.89001C7.99927 5.76086 8.01024 5.87064 8.13751 6.29622C8.48493 7.458 9.10178 8.21859 10.1023 8.71891C10.8586 9.09716 11.7186 9.27038 12.8345 9.26923C15.9262 9.26608 17.4039 7.93963 17.6578 4.93955C17.7315 4.06823 17.6662 3.36405 17.4534 2.73522C17.0117 1.43008 15.8529 0.494373 14.2349 0.136273C13.7096 0.0200378 12.2999 -0.0417795 11.8555 0.03195ZM5.79127 0.138214C5.42107 0.211524 5.4408 0.0871025 5.4408 2.34711V4.38304L5.19606 4.46348C4.68196 4.63246 3.46883 4.7574 2.3335 4.75835L1.77663 4.75882L1.81332 2.74047C1.85309 0.553409 1.85386 0.560703 1.57868 0.560703C1.38443 0.560703 0.958226 0.905158 0.958226 1.06217C0.958226 1.24709 0.808755 3.74755 0.776501 4.10286C0.718382 4.74192 0.695454 4.81266 0.430724 5.16892C0.032651 5.7045 0.0188426 5.90029 0.368587 6.04911C0.571384 6.13538 0.534081 5.96678 0.779386 7.90741C0.879703 8.70112 0.973013 9.40362 0.986718 9.46858C1.01114 9.58408 1.02294 9.58088 1.53215 9.3206L2.05254 9.05465L2.01962 8.86148C1.87386 8.00722 1.8347 7.56925 1.83444 6.79097L1.83413 5.91068L1.97582 5.85448C2.658 5.58365 3.94166 5.40669 4.79418 5.46584L5.32281 5.50257L5.35816 6.14084C5.42076 7.27129 5.63603 8.50533 5.86994 9.07501C5.94836 9.26597 5.95862 9.2718 6.21376 9.2718C6.49158 9.2718 7.17545 9.13263 7.21456 9.06814C7.22729 9.0472 7.15603 8.82297 7.05623 8.56977C6.85487 8.05906 6.70401 7.36475 6.65578 6.72669C6.63832 6.49579 6.57726 4.92779 6.52017 3.24225C6.46303 1.55671 6.40409 0.157578 6.3892 0.133019C6.35782 0.0812776 6.06594 0.0837964 5.79127 0.138214ZM22.3664 0.143515C20.4914 0.398813 19.0512 1.6975 18.5652 3.57117C18.4732 3.92555 18.4541 4.14915 18.4525 4.89001C18.4502 5.95135 18.5223 6.33033 18.8633 7.04821C19.5606 8.51635 21.0449 9.2718 23.2323 9.2718C26.3903 9.2718 27.8743 7.83992 27.9915 4.67974C28.0269 3.72551 27.9557 3.21512 27.701 2.59584C27.2025 1.38422 26.0094 0.523234 24.4125 0.222702C23.8676 0.120163 22.8322 0.0800709 22.3664 0.143515ZM14.1145 1.26662C15.949 1.69168 16.969 2.92356 16.8619 4.58449C16.7888 5.71819 16.3687 6.61024 15.6061 7.25082C14.7504 7.9697 13.685 8.27459 12.3965 8.16932C10.6774 8.02884 9.70579 7.21136 9.38645 5.6367C9.28139 5.11881 9.27989 4.14668 9.38351 3.73343C9.67493 2.57081 10.6668 1.56437 11.8402 1.24064C12.1605 1.15227 12.3305 1.14046 12.989 1.16088C13.4141 1.1741 13.9206 1.22164 14.1145 1.26662ZM24.1993 1.32744C25.7291 1.5937 26.8062 2.42881 27.107 3.58204C27.2116 3.98311 27.2125 4.82515 27.1089 5.33606C27.0649 5.55253 26.9323 5.93036 26.8142 6.17568C26.6421 6.53326 26.5118 6.71063 26.1575 7.06973C25.6443 7.58982 25.1499 7.88033 24.4531 8.07119C23.8491 8.2367 22.6195 8.23859 22.0236 8.07502C20.6664 7.70249 19.9451 6.81196 19.7609 5.28154C19.6265 4.16426 19.857 3.27688 20.4795 2.51498C20.9468 1.9432 21.693 1.4687 22.3557 1.32203C22.798 1.22416 23.6197 1.22658 24.1993 1.32744ZM26.0635 13.1543C25.8736 13.1996 25.7777 13.2703 25.6406 13.4664C25.553 13.5918 25.5354 13.8766 25.4334 16.8296C25.3721 18.604 25.3107 20.1122 25.2969 20.1812C25.2756 20.2878 25.1629 20.1576 24.5473 19.3153C23.6447 18.0804 22.7063 16.7454 21.6186 15.1492C20.1232 12.9546 20.0953 12.9305 19.5596 13.3781L19.2927 13.6011L19.3251 14.7818C19.3718 16.4817 19.2758 19.2555 19.0603 22.438C19.0303 22.8804 19.0367 22.9386 19.1221 23.0022C19.268 23.1108 19.8085 23.0934 20.001 22.9738C20.1558 22.8777 20.1614 22.8607 20.1942 22.3887C20.2129 22.1213 20.2286 21.2272 20.2291 20.4018C20.2304 18.3506 20.3412 16.1654 20.4633 15.7875C20.4758 15.7489 20.6801 16.0117 20.9175 16.3714C21.1548 16.7311 21.7993 17.6481 22.3496 18.4094C23.9536 20.6277 24.7078 21.7296 25.2457 22.6402C25.4181 22.932 25.4576 22.9682 25.6032 22.9685C25.6933 22.9687 25.9189 22.9835 26.1047 23.0014L26.4423 23.0339L26.5009 22.8305C26.7395 22.002 26.8272 18.8779 26.7273 14.7698L26.6944 13.4196L26.5656 13.2927C26.4077 13.1372 26.2814 13.1024 26.0635 13.1543ZM13.9581 13.8378C13.7926 13.9057 13.7043 14.0752 13.5894 14.5457C13.533 14.7766 12.9613 16.4296 12.319 18.219C11.6767 20.0085 11.0694 21.7024 10.9694 21.9834C10.8695 22.2643 10.8007 22.5289 10.8167 22.5714C10.8552 22.6735 11.2254 22.8632 11.3862 22.8632C11.6702 22.8632 12.1314 21.8338 12.4248 20.5455L12.5164 20.1432L14.1858 19.718C15.104 19.4841 15.873 19.3039 15.8946 19.3176C15.9163 19.3312 16.3247 20.1995 16.8022 21.2471C17.2797 22.2947 17.6772 23.1609 17.6853 23.172C17.7259 23.2272 18.0394 23.0329 18.3026 22.7893L18.5979 22.516L18.4293 22.2664C18.1463 21.8475 17.7762 20.9954 17.4485 20.0085C17.2771 19.4919 17.1367 19.0513 17.1367 19.0295C17.1367 19.0077 17.3664 18.9935 17.6472 18.998C18.1221 19.0056 18.167 18.9973 18.2913 18.879C18.3899 18.7849 18.4248 18.6994 18.4248 18.551C18.4248 18.2085 18.3325 18.1617 17.5856 18.1258C17.2284 18.1086 16.8911 18.07 16.8359 18.0399C16.6325 17.929 16.3217 17.2971 15.9564 16.2512C15.2885 14.3393 14.6412 13.5576 13.9581 13.8378ZM1.48928 14.1766C1.27932 14.2696 1.14248 14.5422 1.06694 15.018C1.00125 15.4321 0.260953 21.3891 0.208914 21.9228C0.178309 22.2368 0.186244 22.2808 0.296247 22.4078C0.459681 22.5965 0.906753 22.6556 1.17818 22.5243C1.48939 22.3739 1.53256 22.207 1.51468 21.2229C1.50618 20.7541 1.5287 20.04 1.56471 19.6359C1.74613 17.6001 1.79616 17.1149 1.89065 16.4755C1.94707 16.0937 2.02219 15.6962 2.05759 15.5921L2.12194 15.4028L3.30998 17.9917C3.96341 19.4155 4.55263 20.7063 4.61946 20.8601C4.8323 21.3503 5.243 21.593 5.45528 21.3541C5.50036 21.3033 5.7383 20.8724 5.98402 20.3964C7.42282 17.6092 8.2067 16.3946 8.38343 16.6787C8.4077 16.7177 8.42795 16.8627 8.42841 17.0007C8.42882 17.1389 8.49874 17.7883 8.58376 18.4438C8.66877 19.0995 8.81876 20.2728 8.91706 21.0512C9.05474 22.1412 9.11765 22.4962 9.19076 22.596C9.46739 22.9734 9.88442 23.0596 10.1146 22.7871C10.2298 22.6507 10.2406 22.6011 10.2169 22.316C10.2024 22.1407 10.1552 21.8084 10.1121 21.5775C10.069 21.3466 9.94945 20.4257 9.8465 19.5309C9.54437 16.9054 9.3376 15.837 9.00064 15.1598C8.80675 14.7702 8.64631 14.6229 8.37539 14.5859C7.94347 14.5269 7.9514 14.5165 6.57093 16.9634C5.88009 18.188 5.2902 19.1898 5.25995 19.1898C5.15016 19.1898 4.76641 18.5035 4.30429 17.4806C4.04445 16.9054 3.75041 16.2695 3.65086 16.0675C3.26665 15.2878 2.72307 14.5388 2.3319 14.2502C2.1001 14.0792 1.77364 14.0507 1.48928 14.1766ZM14.7915 16.015C14.8856 16.1882 15.0231 16.5031 15.0969 16.7148C15.2449 17.1386 15.5576 18.2978 15.5307 18.3225C15.4683 18.3799 14.253 18.8344 13.9355 18.9191C13.4441 19.0502 12.9633 19.1135 12.9633 19.0472C12.9633 19.0198 13.1688 18.5271 13.42 17.9522C13.9386 16.7653 14.1088 16.3079 14.1992 15.8576C14.234 15.6844 14.2722 15.5095 14.2842 15.4688C14.3182 15.3534 14.5925 15.6488 14.7915 16.015ZM0.871975 26.8033C0.377397 26.8982 0.134359 27.1611 0.13405 27.6018C0.133689 28.0795 0.312529 28.2684 1.0114 28.5281C1.54142 28.7252 1.73108 28.8931 1.73108 29.1655C1.73108 29.4155 1.5186 29.6115 1.19369 29.6611C0.916028 29.7035 0.670156 29.6275 0.41367 29.4199C0.201392 29.2481 0.122972 29.231 0.0362062 29.3374C-0.0506115 29.444 0.0171939 29.5658 0.255955 29.7318C0.554794 29.9398 0.81906 30.0153 1.15963 29.9902C1.75484 29.9463 2.11633 29.5914 2.07531 29.0909C2.04095 28.6707 1.78457 28.4173 1.19008 28.2158C0.555 28.0005 0.345761 27.753 0.507237 27.4081C0.66423 27.0728 1.28849 27.0102 1.65282 27.2932C1.85417 27.4496 2.00323 27.4544 2.03142 27.3053C2.08727 27.0098 1.38371 26.7052 0.871975 26.8033ZM13.4043 26.8037C13.1021 26.8534 12.7984 27.0576 12.567 27.3666C12.3507 27.6554 12.2724 27.9369 12.2713 28.4295C12.2705 28.7715 12.2933 28.8744 12.4348 29.1671C12.6984 29.7125 13.1387 30 13.7104 30C14.6139 30 15.2642 29.1862 15.1549 28.1926C15.0477 27.2183 14.3324 26.6508 13.4043 26.8037ZM2.45783 26.871C2.42552 26.9107 2.41357 26.9815 2.43129 27.0284C2.45783 27.0989 2.54794 27.1138 2.94658 27.1138H3.42967L3.44343 28.5175L3.45713 29.9213H3.58594H3.71475L3.72846 28.5175L3.74221 27.1138H4.2253C4.60302 27.1138 4.71478 27.0969 4.73755 27.0366C4.75352 26.9941 4.73116 26.9233 4.68783 26.8792C4.57731 26.7666 2.54897 26.7592 2.45783 26.871ZM5.29653 26.8619C5.2007 26.9595 5.21219 28.8542 5.3107 29.192C5.60073 30.1868 6.9521 30.2764 7.40613 29.331C7.51577 29.1028 7.52752 28.9985 7.54514 28.0976C7.55575 27.5564 7.5505 27.0572 7.53349 26.9883C7.49418 26.8287 7.37284 26.7803 7.27139 26.8836C7.20606 26.9501 7.19261 27.1391 7.19261 27.9886C7.19261 28.8263 7.17731 29.0462 7.10878 29.1932C6.82473 29.8029 5.97886 29.8041 5.66138 29.1951C5.59094 29.0599 5.5709 28.8297 5.55348 27.9534C5.53339 26.9445 5.51299 26.8033 5.3867 26.7997C5.37114 26.7993 5.33054 26.8273 5.29653 26.8619ZM8.33165 26.8709C8.29007 26.9219 8.27698 27.3772 8.28667 28.4321L8.30037 29.9213L9.02171 29.9373C9.43761 29.9466 9.82388 29.9293 9.93394 29.8966C10.534 29.718 10.8926 28.908 10.7529 28.0464C10.6823 27.6109 10.5938 27.4174 10.3437 27.1516C10.0846 26.8762 9.79421 26.7989 9.01867 26.7989C8.54913 26.7989 8.37545 26.8171 8.33165 26.8709ZM11.4231 26.8709C11.3815 26.9219 11.3684 27.3772 11.3781 28.4321L11.3918 29.9213L11.5267 29.9372C11.631 29.9495 11.669 29.9256 11.6935 29.8323C11.711 29.7658 11.7256 29.0932 11.726 28.3376C11.7266 27.1581 11.7153 26.9522 11.6458 26.8814C11.5463 26.7801 11.4988 26.7779 11.4231 26.8709ZM14.1773 27.2258C14.6926 27.4725 14.9513 28.197 14.7583 28.853C14.6862 29.0981 14.4044 29.4458 14.1818 29.5644C13.9709 29.6767 13.4528 29.6786 13.2467 29.5677C12.7269 29.2882 12.4856 28.6001 12.6749 27.9369C12.8697 27.2545 13.5574 26.929 14.1773 27.2258ZM9.98016 27.2864C10.0765 27.3524 10.2132 27.5118 10.284 27.6406C10.3963 27.8447 10.4129 27.9388 10.4129 28.3743C10.4129 28.8048 10.3948 28.9102 10.2827 29.1352C10.0875 29.5267 9.84965 29.6327 9.16536 29.6327H8.63528V28.3995V27.1663H9.22018C9.74433 27.1663 9.82327 27.1788 9.98016 27.2864Z" fill="#849D95"/>
</svg>
