<svg width="21" height="21" viewBox="0 0 21 21" fill="none" xmlns="http://www.w3.org/2000/svg">
<path d="M9.51864 0C11.9515 0 13.9371 1.96763 14.0486 4.43755L14.0535 4.65675V5.6364C14.0535 6.07132 13.7102 6.4239 13.2866 6.4239C12.8984 6.4239 12.5775 6.12764 12.5267 5.74326L12.5197 5.6364V4.65675C12.5197 3.0157 11.2702 1.67398 9.69496 1.58023L9.51864 1.575H4.53385C2.93662 1.575 1.63016 2.85824 1.53887 4.4757L1.53378 4.65675V16.3433C1.53378 17.9842 2.7832 19.326 4.35763 19.4198L4.53385 19.425H9.52886C11.1213 19.425 12.4237 18.1465 12.5147 16.5352L12.5197 16.3548V15.3646C12.5197 14.9297 12.8631 14.5771 13.2866 14.5771C13.6749 14.5771 13.9957 14.8734 14.0465 15.2578L14.0535 15.3646V16.3548C14.0535 18.8446 12.1447 20.8772 9.74804 20.9946L9.52886 21H4.53385C2.10185 21 0.116404 19.0322 0.00493588 16.5624L0 16.3433V4.65675C0 2.15874 1.91595 0.119555 4.32046 0.00506949L4.53385 0H9.51864ZM17.6938 6.8049L17.7799 6.88096L20.7739 9.94171C20.8008 9.96917 20.8245 9.99713 20.8462 10.0267L20.7739 9.94171C20.8051 9.97364 20.8331 10.0076 20.8579 10.0433C20.8753 10.0682 20.8915 10.0946 20.9061 10.1219C20.9087 10.1272 20.9114 10.1325 20.9141 10.1377C20.927 10.1629 20.9385 10.189 20.9486 10.2158C20.9527 10.2276 20.9569 10.2394 20.9607 10.2514C20.9682 10.2735 20.9745 10.2962 20.9797 10.3193C20.9822 10.3317 20.9847 10.3439 20.9869 10.3562C20.9911 10.3777 20.9942 10.3998 20.9963 10.4223C20.9975 10.4379 20.9985 10.4533 20.9991 10.4688C20.9998 10.4791 21 10.4895 21 10.4999L20.9991 10.5296C20.9986 10.5458 20.9975 10.5619 20.9959 10.578L21 10.4999C21 10.5491 20.9956 10.5972 20.9872 10.6439C20.9847 10.6556 20.9822 10.6679 20.9794 10.6801C20.9743 10.7045 20.9677 10.728 20.9601 10.7511C20.9562 10.7619 20.9524 10.7728 20.9484 10.7835C20.9389 10.8097 20.9278 10.835 20.9155 10.8595C20.9125 10.865 20.9093 10.8713 20.906 10.8775C20.8708 10.9439 20.8267 11.0041 20.7754 11.0567L20.774 11.0578L17.78 14.1196C17.4799 14.4265 16.9944 14.4255 16.6955 14.1173C16.4238 13.8371 16.3999 13.3996 16.6233 13.0918L16.6977 13.0036L18.3737 11.2865L7.92095 11.2874C7.49741 11.2874 7.15406 10.9348 7.15406 10.4999C7.15406 10.1012 7.44257 9.77173 7.81689 9.71958L7.92095 9.7124L18.3757 9.71145L16.6978 7.99712C16.4249 7.71817 16.3992 7.28073 16.6213 6.97193L16.6954 6.88343C16.967 6.60323 17.393 6.57684 17.6938 6.8049Z" fill="#FEF6E9"/>
</svg>
