<svg width="18" height="17" viewBox="0 0 18 17" fill="none" xmlns="http://www.w3.org/2000/svg">
<path d="M17.3415 15.7089C17.7052 15.7089 18 15.998 18 16.3545C18 16.6813 17.7523 16.9514 17.4308 16.9941L17.3415 17H10.471C10.1073 17 9.81246 16.711 9.81246 16.3545C9.81246 16.0277 10.0602 15.7576 10.3816 15.7148L10.471 15.7089H17.3415ZM10.6592 0.916618C11.906 -0.305539 13.9283 -0.305539 15.175 0.916618L16.4694 2.1854C17.7162 3.40755 17.7162 5.38985 16.4694 6.612L6.74061 16.1486C6.1843 16.6939 5.43007 16.9999 4.64282 16.9999H0.658541C0.288415 16.9999 -0.00901523 16.701 0.000208899 16.3383L0.100432 12.3975C0.120357 11.6526 0.43127 10.9425 0.968667 10.4157L10.6592 0.916618ZM9.906 3.479L1.89998 11.3287C1.60126 11.6215 1.42814 12.0169 1.41707 12.4305L1.33345 15.7084L4.64282 15.7088C5.03222 15.7088 5.4067 15.5745 5.70228 15.3317L5.8093 15.2357L13.855 7.349L9.906 3.479ZM14.2437 1.82953C13.5113 1.11156 12.323 1.11156 11.5905 1.82953L10.838 2.566L14.786 6.436L15.5381 5.69909C16.2298 5.02101 16.2683 3.94433 15.6534 3.22195L15.5381 3.09831L14.2437 1.82953Z"/>
</svg>
