<svg width="18" height="18" viewBox="0 0 18 18" fill="none" xmlns="http://www.w3.org/2000/svg">
<path d="M17.3266 11.608C17.6984 11.608 18 11.9135 18 12.2902C18 12.3014 17.9608 12.8037 17.9211 13.3332L17.8974 13.6504C17.8744 13.9634 17.8538 14.2527 17.8442 14.4181C17.7929 15.2736 17.4652 16.1465 16.9673 16.754C16.2741 17.6004 15.3908 17.9962 14.1898 17.9989C14.1692 17.999 14.1461 17.999 14.1208 17.999L12.9408 17.9999C12.8811 17.9999 12.8199 18 12.7573 18H5.29406C5.23147 18 5.17029 17.9999 5.11062 17.9999L3.93099 17.999L3.86207 17.9989C2.66012 17.9962 1.7769 17.6004 1.08364 16.753C0.586657 16.1465 0.258035 15.2736 0.207617 14.4181C0.197713 14.2527 0.177005 13.9634 0.153797 13.6504L0.130062 13.3332C0.09014 12.8037 0.0509589 12.3014 0.0509589 12.2902C0.0509589 11.9135 0.35257 11.608 0.724408 11.608C1.07824 11.608 1.36004 11.8871 1.38705 12.2373C1.38705 12.2373 1.5257 13.8326 1.55542 14.336C1.58873 14.8933 1.81201 15.4998 2.12353 15.8793C2.56469 16.4183 3.05267 16.629 3.86387 16.6308C3.89101 16.6309 3.92231 16.6309 3.95756 16.631L5.45853 16.6318C5.54404 16.6318 5.63188 16.6318 5.72185 16.6318H12.3286C12.4186 16.6318 12.5064 16.6318 12.592 16.6318L14.0933 16.631L14.1871 16.6308C14.9992 16.629 15.4872 16.4183 15.9274 15.8802C16.2398 15.4998 16.4631 14.8933 16.4964 14.336C16.5253 13.8326 16.6639 12.2373 16.6639 12.2373C16.6909 11.8871 16.9727 11.608 17.3266 11.608ZM8.99892 11.5233C9.37166 11.5233 9.67417 11.8298 9.67417 12.2074V13.3876C9.67417 13.7652 9.37166 14.0717 8.99892 14.0717C8.62618 14.0717 8.32367 13.7652 8.32367 13.3876V12.2074C8.32367 11.8298 8.62618 11.5233 8.99892 11.5233ZM10.1612 0C11.5135 0 12.6218 1.03065 12.7901 2.35409H14.5701C16.4599 2.35409 17.9977 3.91192 17.9977 5.8273V8.98949C17.9977 9.21933 17.8842 9.43276 17.6951 9.56045C15.8387 10.8045 13.6355 11.6336 11.3226 11.9583C11.292 11.9629 11.2605 11.9647 11.2299 11.9647C10.9246 11.9647 10.6527 11.7549 10.5753 11.4485C10.3934 10.7224 9.74341 10.2153 8.99433 10.2153C8.23715 10.2153 7.59341 10.7115 7.39264 11.4521C7.3026 11.7841 6.99019 11.9975 6.64806 11.9492C4.35131 11.6245 2.1572 10.7991 0.303412 9.56045C0.113442 9.43367 0 9.21933 0 8.98949V5.8273C0 3.91192 1.54137 2.35409 3.43657 2.35409H5.20753C5.37679 1.02974 6.4842 0 7.8365 0H10.1612ZM14.5701 3.72221H3.43657C2.28685 3.72221 1.3505 4.66713 1.3505 5.8273V8.61553C2.82885 9.54312 4.52778 10.1925 6.31224 10.5108C6.82002 9.50664 7.8509 8.8472 8.99433 8.8472C10.1477 8.8472 11.174 9.50937 11.6674 10.519C13.4627 10.1989 15.1679 9.54677 16.6472 8.61553V5.8273C16.6472 4.66713 15.7153 3.72221 14.5701 3.72221ZM10.1612 1.36812H7.8365C7.23058 1.36812 6.72459 1.78859 6.57333 2.35409H11.4234C11.2731 1.78859 10.7662 1.36812 10.1612 1.36812Z" fill="#FEF6E9"/>
</svg>
