<svg width="16" height="16" viewBox="0 0 16 16" fill="none" xmlns="http://www.w3.org/2000/svg">
<path d="M4.81078 8.75588C6.12682 8.75588 7.19138 9.82999 7.19138 11.1531V13.6036C7.19138 14.926 6.12666 16 4.81078 16H2.38059C1.06471 16 0 14.926 0 13.6036V11.1531C0 9.82999 1.06456 8.75588 2.38059 8.75588H4.81078ZM13.6202 8.75588C14.9356 8.75588 16 9.83015 16 11.1531V13.6036C16 14.9259 14.9354 16 13.6202 16H11.1892C9.87334 16 8.80862 14.926 8.80862 13.6036V11.1531C8.80862 9.82999 9.87318 8.75588 11.1892 8.75588H13.6202ZM4.81078 9.87216H2.38059C1.68331 9.87216 1.11628 10.4443 1.11628 11.1531V13.6036C1.11628 14.3117 1.68339 14.8837 2.38059 14.8837H4.81078C5.50799 14.8837 6.0751 14.3117 6.0751 13.6036V11.1531C6.0751 10.4443 5.50807 9.87216 4.81078 9.87216ZM13.6202 9.87216H11.1892C10.4919 9.87216 9.9249 10.4443 9.9249 11.1531V13.6036C9.9249 14.3117 10.492 14.8837 11.1892 14.8837H13.6202C14.3167 14.8837 14.8837 14.3116 14.8837 13.6036V11.1531C14.8837 10.4444 14.3168 9.87216 13.6202 9.87216ZM13.6202 0C14.9354 0 16 1.07411 16 2.39641V4.8477C16 6.16947 14.9352 7.24412 13.6202 7.24412H11.1892C9.87356 7.24412 8.80862 6.16962 8.80862 4.8477V2.39641C8.80862 1.07396 9.87334 0 11.1892 0H13.6202ZM4.81078 0C6.12666 0 7.19138 1.07396 7.19138 2.39641V4.8477C7.19138 6.16962 6.12644 7.24412 4.81078 7.24412H2.38059C1.06494 7.24412 0 6.16962 0 4.8477V2.39641C0 1.07396 1.06471 0 2.38059 0H4.81078ZM13.6202 1.11628H11.1892C10.492 1.11628 9.9249 1.68831 9.9249 2.39641V4.8477C9.9249 5.55534 10.4923 6.12784 11.1892 6.12784H13.6202C14.3164 6.12784 14.8837 5.55526 14.8837 4.8477V2.39641C14.8837 1.68839 14.3167 1.11628 13.6202 1.11628ZM4.81078 1.11628H2.38059C1.68339 1.11628 1.11628 1.68831 1.11628 2.39641V4.8477C1.11628 5.55534 1.68369 6.12784 2.38059 6.12784H4.81078C5.50769 6.12784 6.0751 5.55534 6.0751 4.8477V2.39641C6.0751 1.68831 5.50799 1.11628 4.81078 1.11628Z" fill="#849D95"/>
</svg>
