<svg width="16" height="16" viewBox="0 0 16 16" fill="none" xmlns="http://www.w3.org/2000/svg">
<path d="M8.77442 0L8.90217 0.00138347C9.81715 0.045939 10.5994 0.730316 10.8989 1.74517C10.9824 2.06875 11.0295 2.38521 11.0844 2.90038L11.1574 3.5755C11.2243 4.28687 11.2598 5.94504 11.2639 7.66132L11.2639 8.34883C11.2594 10.1792 11.2193 11.9409 11.1434 12.5554L11.0464 13.4642C11.008 13.7707 10.9642 14.0065 10.8925 14.277C10.583 15.3256 9.72909 16.0281 8.78484 15.9991C8.30422 16.0111 7.71891 15.763 7.31174 15.4156L4.10372 12.7714L2.45229 12.7718C1.23656 12.7718 0.36955 11.9431 0.156667 10.6791L0.132634 10.5118C-0.0468446 9.21048 -0.0415565 6.84722 0.132628 5.42974C0.307231 4.16315 1.21994 3.2281 2.45229 3.2281L4.10282 3.22759L7.23085 0.641282C7.60955 0.315801 8.1747 0.048092 8.63399 0.0054505L8.77442 0ZM8.78793 1.37085L8.75367 1.37098C8.64456 1.3686 8.29403 1.52494 8.09472 1.69607L4.7704 4.44539C4.64979 4.54513 4.49897 4.5996 4.34337 4.5996H2.45229C1.94069 4.5996 1.5579 4.99176 1.47266 5.60953C1.31397 6.90146 1.30895 9.14445 1.47293 10.3342C1.55832 11.0485 1.90493 11.4003 2.45229 11.4003H4.34337C4.49856 11.4003 4.64901 11.4545 4.76947 11.5538L8.17273 14.3584C8.35396 14.513 8.63248 14.631 8.78793 14.6281C9.1237 14.6381 9.45546 14.3651 9.59225 13.9027C9.66341 13.6334 9.70046 13.3815 9.74637 12.9184L9.77634 12.6172L9.80193 12.3871C9.94946 11.1912 9.94946 4.80875 9.80168 3.61077L9.70566 2.74213C9.68302 2.55882 9.66101 2.41359 9.63656 2.28908L9.59767 2.11566C9.45544 1.63437 9.12324 1.36092 8.78793 1.37085ZM14.4927 2.64683C15.4626 4.06239 16 5.90705 16 7.88661C16 9.86598 15.4628 11.7097 14.4927 13.1254C14.2796 13.4364 13.8584 13.5132 13.5519 13.297C13.2454 13.0808 13.1697 12.6535 13.3828 12.3425C14.1908 11.1633 14.6483 9.59345 14.6483 7.88661C14.6483 6.17954 14.1907 4.60872 13.3828 3.42974C13.1697 3.11878 13.2454 2.69144 13.5519 2.47524C13.8584 2.25905 14.2796 2.33587 14.4927 2.64683Z" fill="#FEF6E9"/>
</svg>
