<svg width="17" height="11" viewBox="0 0 17 11" fill="none" xmlns="http://www.w3.org/2000/svg">
<path d="M1.68 0V4.186H6.258V0H7.938V10.556H6.258V5.726H1.68V10.556H0V0H1.68Z" fill="#FEF6E9"/>
<path d="M16.3523 9.016V10.556H9.74433L13.1603 6.3C13.403 6.00133 13.6177 5.73067 13.8043 5.488C14.0003 5.24533 14.1637 5.01667 14.2943 4.802C14.4343 4.578 14.537 4.35867 14.6023 4.144C14.677 3.92 14.7143 3.67267 14.7143 3.402C14.7143 3.178 14.6723 2.968 14.5883 2.772C14.5137 2.576 14.4017 2.408 14.2523 2.268C14.1123 2.128 13.9443 2.016 13.7483 1.932C13.5523 1.848 13.3423 1.806 13.1183 1.806C12.661 1.806 12.2783 1.96 11.9703 2.268C11.6717 2.56667 11.5223 2.94467 11.5223 3.402V3.598H9.81433L9.82833 3.402C9.82833 2.97267 9.91233 2.56667 10.0803 2.184C10.2483 1.80133 10.477 1.46533 10.7663 1.176C11.065 0.886667 11.415 0.662666 11.8163 0.503999C12.2177 0.335999 12.6517 0.251999 13.1183 0.251999C13.585 0.251999 14.019 0.335999 14.4203 0.503999C14.8217 0.662666 15.167 0.886667 15.4563 1.176C15.755 1.46533 15.9883 1.80133 16.1563 2.184C16.3243 2.56667 16.4083 2.97267 16.4083 3.402C16.4083 3.75667 16.371 4.074 16.2963 4.354C16.2217 4.634 16.1003 4.914 15.9323 5.194C15.7737 5.474 15.5637 5.782 15.3023 6.118C15.0503 6.44467 14.7423 6.832 14.3783 7.28L12.9643 9.016H16.3523Z" fill="#FEF6E9"/>
</svg>
