<svg width="17" height="11" viewBox="0 0 17 11" fill="none" xmlns="http://www.w3.org/2000/svg">
<path d="M2.08833 0V4.186H6.66633V0H8.34633V10.556H6.66633V5.726H2.08833V10.556H0.408325V0H2.08833Z" fill="#FEF6E9"/>
<path d="M15.5707 5.292C15.972 5.56267 16.2893 5.908 16.5227 6.328C16.756 6.73867 16.8727 7.196 16.8727 7.7C16.8727 8.12 16.7887 8.51667 16.6207 8.89C16.4527 9.26333 16.2193 9.58533 15.9207 9.856C15.6313 10.1267 15.2813 10.3413 14.8707 10.5C14.4693 10.6587 14.0353 10.738 13.5687 10.738C13.102 10.738 12.6633 10.6587 12.2527 10.5C11.8513 10.3413 11.5013 10.122 11.2027 9.842C10.9133 9.562 10.6847 9.23533 10.5167 8.862C10.3487 8.47933 10.2647 8.06867 10.2647 7.63H11.9587C11.9587 7.854 11.996 8.064 12.0707 8.26C12.1547 8.44667 12.2667 8.61 12.4067 8.75C12.556 8.88067 12.7287 8.988 12.9247 9.072C13.1207 9.14667 13.3353 9.184 13.5687 9.184C13.802 9.184 14.0167 9.14667 14.2127 9.072C14.4087 8.988 14.5767 8.88067 14.7167 8.75C14.866 8.61 14.978 8.44667 15.0527 8.26C15.1367 8.064 15.1787 7.854 15.1787 7.63C15.1787 7.41533 15.1367 7.21467 15.0527 7.028C14.978 6.832 14.8753 6.66867 14.7447 6.538C14.5953 6.38867 14.4133 6.27667 14.1987 6.202C13.9933 6.118 13.7367 6.076 13.4287 6.076H13.3167V4.592H13.4287C13.718 4.592 13.956 4.55467 14.1427 4.48C14.3293 4.40533 14.4927 4.298 14.6327 4.158C14.8753 3.91533 15.006 3.59333 15.0247 3.192C15.0247 2.79067 14.8847 2.45933 14.6047 2.198C14.334 1.92733 13.9887 1.792 13.5687 1.792C13.1487 1.792 12.7987 1.92733 12.5187 2.198C12.248 2.45933 12.1127 2.79067 12.1127 3.192H10.4187C10.4187 2.78133 10.498 2.39867 10.6567 2.044C10.8247 1.68 11.0487 1.36733 11.3287 1.106C11.6087 0.835333 11.94 0.625333 12.3227 0.476C12.7053 0.317333 13.1207 0.237999 13.5687 0.237999C14.0167 0.237999 14.432 0.312666 14.8147 0.462C15.1973 0.611333 15.5287 0.816666 15.8087 1.078C16.0887 1.33933 16.308 1.64733 16.4667 2.002C16.6347 2.34733 16.7187 2.72067 16.7187 3.122C16.7187 3.57 16.616 3.98067 16.4107 4.354C16.2053 4.72733 15.9253 5.04 15.5707 5.292Z" fill="#FEF6E9"/>
</svg>
