<svg width="16" height="16" viewBox="0 0 16 16" fill="none" xmlns="http://www.w3.org/2000/svg">
<path d="M12.2427 10.3573L11.3 9.41334L12.2427 8.47067C12.5544 8.16164 12.8021 7.79407 12.9714 7.38907C13.1407 6.98407 13.2284 6.54962 13.2293 6.11065C13.2303 5.67168 13.1445 5.23685 12.977 4.83111C12.8094 4.42538 12.5634 4.05673 12.253 3.74633C11.9426 3.43593 11.574 3.1899 11.1682 3.02236C10.7625 2.85482 10.3277 2.76907 9.88869 2.77003C9.44972 2.77099 9.01527 2.85864 8.61027 3.02796C8.20527 3.19728 7.8377 3.44492 7.52867 3.75667L6.586 4.70001L5.64267 3.75734L6.58667 2.81467C7.46188 1.93946 8.64893 1.44777 9.88667 1.44777C11.1244 1.44777 12.3115 1.93946 13.1867 2.81467C14.0619 3.68989 14.5536 4.87693 14.5536 6.11467C14.5536 7.35241 14.0619 8.53946 13.1867 9.41467L12.2433 10.3573H12.2427ZM10.3573 12.2427L9.414 13.1853C8.53878 14.0606 7.35174 14.5522 6.114 14.5522C4.87626 14.5522 3.68921 14.0606 2.814 13.1853C1.93878 12.3101 1.44709 11.1231 1.44709 9.88534C1.44709 8.6476 1.93878 7.46056 2.814 6.58534L3.75733 5.64267L4.7 6.58667L3.75733 7.52934C3.44558 7.83838 3.19793 8.20594 3.02862 8.61094C2.8593 9.01594 2.77165 9.4504 2.77068 9.88936C2.76972 10.3283 2.85547 10.7632 3.02302 11.1689C3.19056 11.5746 3.43659 11.9433 3.74699 12.2537C4.05738 12.5641 4.42603 12.8101 4.83177 12.9777C5.23751 13.1452 5.67234 13.231 6.11131 13.23C6.55028 13.229 6.98473 13.1414 7.38973 12.9721C7.79473 12.8027 8.1623 12.5551 8.47133 12.2433L9.414 11.3007L10.3573 12.2433V12.2427ZM9.88533 5.17134L10.8287 6.11467L6.11467 10.828L5.17133 9.88534L9.88533 5.17201V5.17134Z" fill="#FEF6E9"/>
</svg>
